# xmcd
#
# Track frame offsets: 
#        150
#        18455
#        39885
#        61865
#        87687
#        108239
#        128424
#        148093
#        173754
#        198746
#        217601
#        237896
#
# Disc length: 3442 seconds
#
# Revision: 0
# Processed by: cddbd v1.5.2PL0 Copyright (c) Steve Scherf et al.
# Submitted via: ExactAudioCopy v1.0b3
#
DISCID=9b0d700c
DTITLE=Giao Linh, Tuan Vu - Doi Mat Nguoi Xua
DYEAR=1989
DGENRE=
TTITLE0=Giao Linh - Mang tron niem dau
TTITLE1=Tuan Vu - Hoa su nha nang
TTITLE2=Roi ngay mai xa nhau
TTITLE3=Giao Linh - Phan buon
TTITLE4=Tuan Vu - Doi mat nguoi xua
TTITLE5=Duong tinh doi nga
TTITLE6=Giao Linh - Nhat thuc
TTITLE7=Tuan Vu - Mua Xuan la kho
TTITLE8=Sau tim thiep hong
TTITLE9=Giao Linh - Dem hoa chau
TTITLE10=Tuan Vu - La thu cuoi cung
TTITLE11=Giao Linh - Nhu canh beo troi
EXTD=
EXTT0=
EXTT1=
EXTT2=
EXTT3=
EXTT4=
EXTT5=
EXTT6=
EXTT7=
EXTT8=
EXTT9=
EXTT10=
EXTT11=
PLAYORDER=
